<svg id="Слой_1" xmlns="http://www.w3.org/2000/svg" viewBox="0 0 967.24 721.91"><style>.st0{fill:#f4f7fc}.st1{fill:#5f7ceb}.st2{fill:#edc04d}.st3{fill:#f2f2fb}.st4{opacity:0}.st5{fill:none;stroke:#4f7df0;stroke-width:8;stroke-linecap:round;stroke-miterlimit:10}.st6{fill:#4f7df0}.st7{fill:none;stroke:#c6017c;stroke-width:8;stroke-linecap:round;stroke-miterlimit:10}.st8{fill:#edbe3e}.st9{fill:#f1f1fa}.st10{fill:#78d0be}.st11{fill:none;stroke:#5874e7;stroke-width:8;stroke-linecap:round;stroke-miterlimit:10}</style><title>Ресурс 4</title><g id="Слой_2-2"><path class="st0" d="M42.04 414.27l522.4-63.77c13.58-1.66 25.93 8 27.59 21.58 1.66 13.58-8.01 25.93-21.59 27.58l-522.4 63.77c-13.58 1.66-25.93-8-27.59-21.58-1.65-13.57 8.01-25.92 21.59-27.58zm121.58-198.43l507.04-61.9c13.58-1.66 25.93 8 27.59 21.58 1.66 13.58-8.01 25.93-21.59 27.58L169.62 265c-13.58 1.66-25.93-8-27.59-21.58-1.65-13.58 8.01-25.93 21.59-27.58zm-13.82 95.48l534.69-65.27c13.58-1.66 25.93 8 27.59 21.58 1.66 13.58-8.01 25.93-21.59 27.58L155.8 360.49c-13.58 1.66-25.93-8-27.59-21.58-1.65-13.58 8.01-25.93 21.59-27.59zM42.29 515.62l503.96-61.52c13.58-1.66 25.93 8 27.59 21.58 1.66 13.58-8.01 25.93-21.59 27.58L48.29 564.79c-13.58 1.66-25.93-8-27.59-21.58-1.66-13.58 8.01-25.93 21.59-27.59z"/><path class="st0" d="M407.74 445v-1.89c0-13.17 9.82-24.75 22.89-26.34V407L187.3 439.83v6.36c11.57 1.55 20.58 10.81 21.8 22.42v.28c1.64 14-8.07 27.29-21.55 29l-.28 6 243.33-9v-26.64c-11.6-.81-21.4-11.31-22.86-23.25zm141.49-164.27l-2.24-18c-12.02 1.42-22.91-7.17-24.33-19.19-1.41-11.9 7.01-22.73 18.89-24.29l-.68-5.44-259.1 25.08-.89 12.28c12.29 1.28 21.22 12.28 19.95 24.57-1.18 11.37-10.74 20.02-22.17 20.07h-1l-.54 7.47 272.11-22.55zm-43.06 36.78v-4.61L225.33 352c11.01 1.82 18.46 12.22 16.64 23.24-1.43 8.63-8.25 15.37-16.9 16.68v3.94l281.1-31v-7.05c-11.14-.66-19.64-10.22-18.99-21.36.6-10.23 8.76-18.38 18.99-18.99v.05z"/><path class="st1" d="M165.43 187.4c0 3.31 2.69 6 6 6s6-2.69 6-6-2.69-6-6-6-6 2.69-6 6zM590.3 336.48c.03 3.31 2.74 5.98 6.05 5.95 3.31-.03 5.98-2.74 5.95-6.05a6.007 6.007 0 0 0-6-5.95c-3.31 0-6 2.69-6 6v.05z"/><path class="st2" d="M612 462.32c0 3.31 2.69 6 6 6s6-2.69 6-6-2.69-6-6-6-6 2.69-6 6zm-442.46-70.48c0 3.31 2.69 6 6 6s6-2.69 6-6-2.69-6-6-6-6 2.69-6 6zM767 420.32c0 3.31 2.69 6 6 6s6-2.69 6-6-2.69-6-6-6-6 2.69-6 6zM363.59 167.77c.3 0 .59-.12.8-.33.44-.45.44-1.17 0-1.62l-8.95-8.95c-.45-.44-1.16-.44-1.61 0-.44.44-.45 1.15-.01 1.6l.01.01 8.95 9c.22.2.51.3.81.29z"/><path class="st2" d="M354.63 167.77c.3 0 .59-.12.81-.33l8.95-9c.42-.47.38-1.19-.08-1.61-.43-.39-1.09-.39-1.53 0l-8.95 8.95c-.45.44-.45 1.16-.01 1.61l.01.01c.21.23.49.36.8.37z"/><path class="st1" d="M384.49 609.86c.63.02 1.17-.48 1.19-1.11.01-.34-.13-.66-.38-.89l-8.95-8.86c-.47-.42-1.19-.38-1.61.08-.39.43-.39 1.09 0 1.53l8.95 8.95c.22.2.5.31.8.3z"/><path class="st1" d="M375.54 609.86c.3 0 .59-.13.81-.34l8.95-8.95c.44-.45.44-1.16 0-1.61-.44-.44-1.15-.45-1.6-.01l-.01.01-8.95 8.95c-.47.43-.5 1.15-.08 1.62.22.25.54.38.88.38v-.05z"/><path class="st3" d="M810 311.32c0 3.31 2.69 6 6 6s6-2.69 6-6-2.69-6-6-6-6 2.69-6 6z"/><g class="st4"><path class="st5" d="M907.11 112.79c2.06-6.09 3.49-6.16 5.59-6.51 3.48-.58 5.95 3.53 9.64 2.9 4.47-.77 3.81-9.34 9.41-11.58 4.67-1.87 7.57 3.1 12.3 1.45 6.17-2.17 2.87-10.49 8.72-13 2.54-1.08 5.05-2.33 10.47.87"/><path class="st6" d="M485.71 678.47l-8.71 4.18c-.56.26-1.22.2-1.72-.17l-7.28-5.42a1.65 1.65 0 0 0-2.32.33c-.27.36-.38.81-.32 1.25l1.37 9c.1.61-.16 1.23-.66 1.59L458.2 695c-.75.52-.94 1.56-.41 2.31.26.37.65.62 1.09.69l9.54 1.75c.61.11 1.1.54 1.29 1.13l2.73 8.82c.28.88 1.21 1.37 2.09 1.09.41-.13.76-.41.97-.79l4.48-8.2c.29-.53.85-.86 1.45-.87l9.34-.08c.92 0 1.66-.74 1.66-1.66 0-.44-.17-.86-.48-1.17l-6.47-6.59c-.43-.44-.58-1.09-.38-1.67l3-9.23a1.68 1.68 0 0 0-1.02-2.16c-.45-.16-.95-.13-1.37.1zM274.37 1.75l-8.76 4.18c-.56.26-1.21.2-1.71-.17L256.62.34A1.657 1.657 0 1 0 254 1.92l1.37 9c.1.62-.16 1.24-.67 1.6l-7.82 5.75c-.75.54-.92 1.58-.38 2.33.26.35.64.59 1.07.67l9.51 1.73c.61.11 1.11.54 1.3 1.13l2.73 8.82a1.668 1.668 0 0 0 3.05.3l4.48-8.2c.29-.53.85-.86 1.45-.87l9.35-.08c.92 0 1.66-.75 1.65-1.67 0-.44-.18-.85-.48-1.16l-6.46-6.59c-.43-.44-.58-1.08-.39-1.67l3-9.23c.3-.89-.18-1.84-1.07-2.14-.44-.14-.91-.1-1.32.11zm356.57 50.46L612 32.58a4.771 4.771 0 0 1 .38-7.09c2.3-1.81 5.6-1.61 7.66.47L639 45.6a4.765 4.765 0 0 1-.38 7.08 5.761 5.761 0 0 1-7.68-.47z"/><path class="st6" d="M639 32.75l-19 19.13a5.88 5.88 0 0 1-7.65.45 4.57 4.57 0 0 1-.78-6.42c.14-.18.29-.34.45-.49L631 26.3a5.856 5.856 0 0 1 7.65-.45 4.556 4.556 0 0 1 .35 6.9z"/><path class="st5" d="M749.55 530.39c6.59-2.71 12.92 1.44 15.63 7.41 3.62 8-.9 22.69 18.81 21.34M4.56 330.81C2.35 324 7 318 13.12 315.78c8.21-3 22.56 2.6 22.69-17.16"/><circle class="st5" cx="93.63" cy="707.57" r="10.34"/><path class="st6" d="M809.37 177.75l-8.76 4.18c-.56.26-1.21.2-1.71-.17l-7.28-5.42a1.65 1.65 0 0 0-2.32.33c-.27.36-.38.81-.32 1.25l1.37 9c.1.62-.16 1.24-.67 1.6l-7.82 5.75c-.75.54-.92 1.58-.38 2.33.26.35.64.59 1.07.67l9.53 1.75c.61.11 1.11.54 1.3 1.13l2.73 8.82c.31.87 1.27 1.32 2.14 1.01.36-.13.67-.38.86-.71l4.48-8.2c.29-.53.85-.86 1.45-.87l9.35-.08c.92 0 1.66-.75 1.65-1.67 0-.44-.18-.85-.48-1.16l-6.46-6.59c-.43-.44-.58-1.08-.39-1.67l3-9.23c.29-.89-.19-1.84-1.08-2.13a1.67 1.67 0 0 0-1.26.08z"/></g><path class="st7" d="M907.11 112.79c2.06-6.09 3.49-6.16 5.59-6.51 3.48-.58 5.95 3.53 9.64 2.9 4.47-.77 3.81-9.34 9.41-11.58 4.67-1.87 7.57 3.1 12.3 1.45 6.17-2.17 2.87-10.49 8.72-13 2.54-1.08 5.05-2.33 10.47.87"/><path class="st8" d="M485.71 678.47l-8.71 4.18c-.56.26-1.22.2-1.72-.17l-7.28-5.42a1.65 1.65 0 0 0-2.32.33c-.27.36-.38.81-.32 1.25l1.37 9c.1.61-.16 1.23-.66 1.59L458.2 695c-.75.52-.94 1.56-.41 2.31.26.37.65.62 1.09.69l9.54 1.75c.61.11 1.1.54 1.29 1.13l2.73 8.82c.28.88 1.21 1.37 2.09 1.09.41-.13.76-.41.97-.79l4.48-8.2c.29-.53.85-.86 1.45-.87l9.34-.08c.92 0 1.66-.74 1.66-1.66 0-.44-.17-.86-.48-1.17l-6.47-6.59c-.43-.44-.58-1.09-.38-1.67l3-9.23a1.68 1.68 0 0 0-1.02-2.16c-.45-.16-.95-.13-1.37.1z"/><path class="st9" d="M274.37 1.75l-8.76 4.18c-.56.26-1.21.2-1.71-.17L256.62.34A1.657 1.657 0 1 0 254 1.92l1.37 9c.1.62-.16 1.24-.67 1.6l-7.82 5.75c-.75.54-.92 1.58-.38 2.33.26.35.64.59 1.07.67l9.51 1.73c.61.11 1.11.54 1.3 1.13l2.73 8.82a1.668 1.668 0 0 0 3.05.3l4.48-8.2c.29-.53.85-.86 1.45-.87l9.35-.08c.92 0 1.66-.75 1.65-1.67 0-.44-.18-.85-.48-1.16l-6.46-6.59c-.43-.44-.58-1.08-.39-1.67l3-9.23c.3-.89-.18-1.84-1.07-2.14-.44-.14-.91-.1-1.32.11z"/><path class="st10" d="M630.94 52.21L612 32.58a4.771 4.771 0 0 1 .38-7.09c2.3-1.81 5.6-1.61 7.66.47L639 45.6a4.765 4.765 0 0 1-.38 7.08 5.761 5.761 0 0 1-7.68-.47z"/><path class="st10" d="M639 32.75l-19 19.13a5.88 5.88 0 0 1-7.65.45 4.57 4.57 0 0 1-.78-6.42c.14-.18.29-.34.45-.49L631 26.3a5.856 5.856 0 0 1 7.65-.45 4.556 4.556 0 0 1 .35 6.9z"/><path class="st11" d="M749.55 530.39c6.59-2.71 12.92 1.44 15.63 7.41 3.62 8-.9 22.69 18.81 21.34M4.56 330.81C2.35 324 7 318 13.12 315.78c8.21-3 22.56 2.6 22.69-17.16"/><circle class="st7" cx="93.63" cy="707.57" r="10.34"/><path class="st9" d="M809.37 177.75l-8.76 4.18c-.56.26-1.21.2-1.71-.17l-7.28-5.42a1.65 1.65 0 0 0-2.32.33c-.27.36-.38.81-.32 1.25l1.37 9c.1.62-.16 1.24-.67 1.6l-7.82 5.75c-.75.54-.92 1.58-.38 2.33.26.35.64.59 1.07.67l9.53 1.75c.61.11 1.11.54 1.3 1.13l2.73 8.82c.31.87 1.27 1.32 2.14 1.01.36-.13.67-.38.86-.71l4.48-8.2c.29-.53.85-.86 1.45-.87l9.35-.08c.92 0 1.66-.75 1.65-1.67 0-.44-.18-.85-.48-1.16l-6.46-6.59c-.43-.44-.58-1.08-.39-1.67l3-9.23c.29-.89-.19-1.84-1.08-2.13a1.67 1.67 0 0 0-1.26.08z"/></g></svg>