<?xml version="1.0" standalone="no"?>
<!DOCTYPE svg PUBLIC "-//W3C//DTD SVG 20010904//EN"
 "http://www.w3.org/TR/2001/REC-SVG-20010904/DTD/svg10.dtd">
<svg version="1.0" xmlns="http://www.w3.org/2000/svg"
 width="180.000000pt" height="180.000000pt" viewBox="0 0 180.000000 180.000000"
 preserveAspectRatio="xMidYMid meet">
<metadata>
Created by potrace 1.11, written by Peter Selinger 2001-2013
</metadata>
<g transform="translate(0.000000,180.000000) scale(0.100000,-0.100000)"
fill="#000000" stroke="none">
<path d="M721 1284 c-282 -18 -515 -35 -517 -37 -5 -4 35 -695 42 -744 l5 -33
79 0 c168 0 1035 60 1046 73 19 20 235 389 232 396 -2 4 -66 91 -143 194
l-139 187 -46 -1 c-25 -1 -276 -17 -559 -35z m442 -208 c104 -43 139 -197 65
-282 -17 -19 -45 -42 -62 -51 -39 -20 -123 -20 -161 0 -133 69 -135 265 -3
330 40 20 118 22 161 3z m-443 -16 c54 -16 74 -35 61 -57 -32 -55 -36 -57 -84
-38 -41 15 -47 15 -75 1 -62 -32 -61 -139 2 -167 37 -17 96 -3 96 22 0 17 -5
19 -34 14 -33 -7 -34 -6 -41 35 -4 23 -5 43 -3 44 8 8 158 15 162 8 2 -4 6
-41 7 -82 l2 -75 -39 -28 c-90 -63 -218 -41 -269 47 -30 51 -34 130 -9 181 39
82 132 121 224 95z"/>
<path d="M1032 980 c-26 -24 -37 -61 -28 -95 25 -100 166 -80 166 23 0 76 -85
121 -138 72z"/>
</g>
</svg>
